<svg width="79" height="80" viewBox="0 0 79 80" fill="none" xmlns="http://www.w3.org/2000/svg">
<path d="M33.426 75.7744C51.0878 80.5069 69.257 69.5535 74.1014 51.474C78.9458 33.3944 68.6875 14.8239 51.0257 10.0915C33.364 5.35902 15.1947 16.3123 10.3503 34.3919C5.50591 52.4715 15.7643 71.042 33.426 75.7744Z" fill="#021024" fill-opacity="0.1"/>
<path d="M31.6849 72.8086C48.7845 77.3904 66.4263 66.7905 71.1356 49.2152C75.8448 31.64 65.8666 13.6393 48.767 9.05746C31.6674 4.47564 14.0256 15.0756 9.31632 32.6508C4.60705 50.2261 14.5853 68.2267 31.6849 72.8086Z" fill="#B96F00" stroke="#975100" stroke-width="2"/>
<path d="M29.6849 70.8086C46.7845 75.3904 64.4263 64.7905 69.1356 47.2152C73.8448 29.64 63.8666 11.6393 46.767 7.05746C29.6674 2.47564 12.0256 13.0756 7.31632 30.6508C2.60705 48.2261 12.5853 66.2267 29.6849 70.8086Z" fill="#F9B300" stroke="#975100" stroke-width="2"/>
<path d="M31.2377 65.0129C45.1432 68.7389 59.4902 60.0298 63.3399 45.6622C67.1897 31.2947 59.1194 16.5789 45.214 12.8529C31.3085 9.12698 16.9616 17.8361 13.1118 32.2036C9.26202 46.5712 17.3323 61.287 31.2377 65.0129Z" fill="#FFCF23" stroke="#DF8D12" stroke-width="2"/>
<path fill-rule="evenodd" clip-rule="evenodd" d="M56.7898 21.1264C54.0424 18.6779 50.7193 16.8275 46.9551 15.8188C33.6185 12.2453 19.7942 20.5923 16.0777 34.4624C13.6795 43.4128 16.0762 52.4758 21.6619 58.7394C14.675 52.5127 11.4102 42.4178 14.0777 32.4624C17.7942 18.5923 31.6185 10.2453 44.9551 13.8188C49.6857 15.0864 53.7195 17.6835 56.7898 21.1264Z" fill="#FFDD65"/>
<circle cx="54.5171" cy="50.6544" r="1.42007" transform="rotate(-24.5189 54.5171 50.6544)" fill="#F9B300"/>
<circle cx="60.2368" cy="44.9236" r="1.42007" transform="rotate(-24.5189 60.2368 44.9236)" fill="#F9B300"/>
<circle cx="53.3125" cy="44.3472" r="1.42007" transform="rotate(-24.5189 53.3125 44.3472)" fill="#F9B300"/>
<circle cx="56.6092" cy="46.2711" r="0.98898" transform="rotate(-24.5189 56.6092 46.2711)" fill="#F9B300"/>
<circle cx="56.2245" cy="41.932" r="0.98898" transform="rotate(-24.5189 56.2245 41.932)" fill="#F9B300"/>
<circle cx="60.7417" cy="40.9586" r="0.98898" transform="rotate(-24.5189 60.7417 40.9586)" fill="#F9B300"/>
<circle cx="61.3254" cy="34.7836" r="0.98898" transform="rotate(-24.5189 61.3254 34.7836)" fill="#F9B300"/>
<circle cx="58.2644" cy="38.8275" r="0.98898" transform="rotate(-24.5189 58.2644 38.8275)" fill="#F9B300"/>
<circle cx="59.0732" cy="48.9105" r="0.98898" transform="rotate(-24.5189 59.0732 48.9105)" fill="#F9B300"/>
<circle cx="54.643" cy="54.7157" r="0.914009" transform="rotate(-24.5189 54.643 54.7157)" fill="#F9B300"/>
<circle cx="57.1172" cy="52.0868" r="0.559247" transform="rotate(-24.5189 57.1172 52.0868)" fill="#F9B300"/>
<circle cx="52.981" cy="47.5923" r="0.760754" transform="rotate(-24.5189 52.981 47.5923)" fill="#F9B300"/>
<circle cx="58.766" cy="35.5884" r="0.760754" transform="rotate(-24.5189 58.766 35.5884)" fill="#F9B300"/>
<circle cx="61.049" cy="38.3938" r="0.760754" transform="rotate(-24.5189 61.049 38.3938)" fill="#F9B300"/>
<circle cx="52.006" cy="52.9702" r="0.760754" transform="rotate(-24.5189 52.006 52.9702)" fill="#F9B300"/>
<circle cx="51.5754" cy="57.4033" r="0.760754" transform="rotate(-24.5189 51.5754 57.4033)" fill="#F9B300"/>
<path d="M49.0383 31.4852C47.4049 28.9626 45.5492 27.4791 41.3932 26.59C37.2373 25.7009 32.7479 26.3703 31.7476 31.0457C30.7474 35.7212 34.5699 38.1688 38.7259 39.0579C42.8818 39.947 46.7044 42.3946 45.7041 47.07C44.7039 51.7455 40.2145 52.4148 36.0586 51.5257C31.9026 50.6366 29.4654 48.4854 28.4135 46.6305" stroke="#B96F00" stroke-width="8" stroke-linecap="round" stroke-linejoin="round"/>
<path d="M42.7269 20.3562L41.4717 26.2234" stroke="#B96F00" stroke-width="8" stroke-linecap="round" stroke-linejoin="round"/>
<path d="M36.0586 51.5259L34.8034 57.3931" stroke="#B96F00" stroke-width="8" stroke-linecap="round" stroke-linejoin="round"/>
<path d="M49.0383 31.4852C47.4049 28.9626 45.5492 27.4791 41.3932 26.59C37.2373 25.7009 32.7479 26.3703 31.7476 31.0457C30.7474 35.7212 34.5699 38.1688 38.7259 39.0579C42.8818 39.947 46.7044 42.3946 45.7041 47.07C44.7039 51.7455 40.2145 52.4148 36.0586 51.5257C31.9026 50.6366 29.4654 48.4854 28.4135 46.6305" stroke="#DF8D12" stroke-width="3" stroke-linecap="round" stroke-linejoin="round"/>
<path d="M42.7269 20.3562L41.4717 26.2234" stroke="#DF8D12" stroke-width="3" stroke-linecap="round" stroke-linejoin="round"/>
<path d="M36.0586 51.5259L34.8034 57.3931" stroke="#DF8D12" stroke-width="3" stroke-linecap="round" stroke-linejoin="round"/>
<path d="M31.226 10.0116C21.9371 12.5753 14.4551 19.4941 11.1148 28.4331" stroke="#FFD363" stroke-width="2" stroke-linecap="round" stroke-linejoin="round"/>
<path d="M53.8149 63.9331C57.3416 61.5883 60.3437 58.5171 62.6077 54.9331" stroke="#FFDB5B" stroke-width="2" stroke-linecap="round" stroke-linejoin="round"/>
<path d="M21.226 14.9331C21.226 14.9331 18.226 16.9331 16.226 19.9331" stroke="#FFE9AF" stroke-width="2" stroke-linecap="round" stroke-linejoin="round"/>
<path d="M25.226 19.9331C25.226 19.9331 22.226 21.9331 20.226 24.9331" stroke="white" stroke-width="2" stroke-linecap="round" stroke-linejoin="round"/>
</svg>
