<svg width="182" height="47" viewBox="0 0 182 47" fill="none" xmlns="http://www.w3.org/2000/svg">
<path fill-rule="evenodd" clip-rule="evenodd" d="M181.792 32.4055L181.868 31.6583C181.377 31.0186 182.069 30.123 181.079 29.3809C178.707 27.7738 176.104 26.5501 173.362 25.7537L172.555 25.6804C172.061 25.1891 170.801 25.1327 170.033 24.9979C169.574 24.8832 169.104 24.8203 168.631 24.8103C167.883 25.0479 167.101 25.1575 166.318 25.1346L165.11 25.1875C162.435 25.3587 159.78 25.7778 157.18 26.4397C153.589 27.0726 150.154 29.3109 150.119 33.2638C150.109 34.6763 149.902 46.4238 150.273 46.8128C150.48 47.0636 150.315 47.0415 150.82 46.8692C156.076 45.1317 161.417 43.6689 166.82 42.4865C168.475 42.1624 170.09 41.8346 171.751 41.4985C173.33 41.2549 174.874 40.815 176.346 40.1884C177.618 39.533 178.72 38.584 179.564 37.4178C180.498 36.3385 181.163 35.0471 181.503 33.6526L181.785 32.4072L181.792 32.4055Z" fill="url(#paint0_linear_1_227)"/>
<path fill-rule="evenodd" clip-rule="evenodd" d="M156.445 3.58068C155.583 3.34524 142.634 -0.211833 142.244 0.00994964C142.005 0.654824 142.156 7.50122 142.165 8.77391C142.175 10.6505 141.916 15.8486 142.563 17.123C142.955 18.1287 143.557 19.0364 144.327 19.7833C145.098 20.5302 146.019 21.0986 147.027 21.4495C156.634 25.7401 171.227 22.857 180.082 29.5173C180.795 30.1206 181.399 30.8444 181.869 31.6567C182.106 26.4814 182.021 21.2962 181.614 16.1319C181.293 14.3772 180.585 12.7189 179.542 11.2817C178.488 9.85758 177.149 8.67502 175.614 7.81136C174.078 6.9477 172.381 6.42236 170.631 6.26944L163.72 4.93703L156.445 3.58068Z" fill="url(#paint1_linear_1_227)"/>
<path fill-rule="evenodd" clip-rule="evenodd" d="M100.431 27.6202C100.515 26.5966 101.018 26.3082 101.122 25.0116C101.179 24.0605 101.302 23.1148 101.49 22.1814C102.716 22.3896 103.2 23.3005 103.62 24.3991C103.841 24.9657 103.981 25.5616 104.036 26.1685C104.068 26.4706 104.048 26.776 103.975 27.0708C103.711 27.8505 103.896 27.4018 103.572 27.6321C102.531 27.7999 101.471 27.7936 100.433 27.6133L100.431 27.6202ZM80.915 22.079C84.1783 20.994 85.0526 26.4465 82.534 27.291C79.0958 28.4442 77.9442 23.0686 80.915 22.0809V22.079ZM95.9018 16.1694C94.7401 19.2402 98.1294 27.5213 90.5537 27.7943C89.4205 27.8353 89.3483 27.7039 89.3869 26.6837C89.5399 22.6217 89.0775 18.3446 84.8121 16.5909C77.2178 13.4654 71.3503 22.3246 74.2404 28.584C75.5703 31.4621 76.6395 31.5201 78.4284 32.6887C77.1624 33.7379 75.1937 32.1769 74.6775 34.1729C74.3766 35.333 74.2925 38.1309 75.3786 38.5625C77.5643 39.4326 81.8346 37.481 83.1998 36.5512C86.7304 34.1457 85.0123 33.953 90.5689 33.8574C93.2531 33.8263 95.8449 32.8589 97.9092 31.1176C98.0992 32.508 97.7243 33.0487 98.5195 33.6117C102.125 34.0028 105.761 34.0239 109.37 33.6748C110.319 32.9634 110.004 31.5134 110.016 30.1332C110.044 26.3987 110.231 22.9303 108.177 19.7861C107.075 18.0873 105.382 16.8739 103.435 16.3895C100.951 15.9285 98.4114 15.8556 95.9051 16.1729L95.9018 16.1694Z" fill="#545456"/>
<path fill-rule="evenodd" clip-rule="evenodd" d="M134.922 32.1482C134.86 28.5877 135.231 27.7876 133.979 24.7014C133.275 22.7975 132.168 21.0736 130.736 19.6512C129.303 18.2289 127.581 17.1428 125.69 16.4697C124.486 16.0459 123.204 15.8991 121.937 16.0399C120.538 16.2702 120.9 17.6094 120.898 18.9913C120.888 23.415 121.889 21.2569 125.043 22.9714C126.542 23.8928 127.701 25.2881 128.343 26.9431C128.362 27.0823 128.362 27.2234 128.343 27.3627L128.254 27.6459C126.314 28.0741 123.456 27.4753 121.631 27.8046C120.376 28.0332 120.437 28.818 120.469 30.13C120.348 31.171 120.405 32.2256 120.638 33.2469C121.25 34.1682 122.889 33.8559 124.281 33.8542H128.429C135.14 33.8542 134.961 34.4991 134.922 32.1482Z" fill="#545456"/>
<path fill-rule="evenodd" clip-rule="evenodd" d="M118.336 13.3272C118.785 2.86073 118.972 4.19154 114.532 4.23249C112.704 4.24955 112.923 5.13502 112.921 6.93146C112.921 8.92068 112.723 32.4175 113.128 33.204C113.617 34.1525 115.727 33.9292 116.909 33.8558C118.703 33.7466 118.168 32.2896 118.182 30.6774C118.229 24.9589 118.096 18.9656 118.338 13.3255L118.336 13.3272Z" fill="#545456"/>
<path fill-rule="evenodd" clip-rule="evenodd" d="M23.7889 24.2491C19.6429 24.9844 20.3053 22.0706 20.8735 21.4565C21.0375 21.2924 21.2324 21.1636 21.4465 21.0776C21.6605 20.9917 21.8894 20.9503 22.1196 20.956C22.3498 20.9617 22.5764 21.0144 22.7861 21.111C22.9958 21.2075 23.1841 21.3459 23.3399 21.5179C23.9418 22.1884 23.7636 23.1846 23.7889 24.2491ZM29.337 24.3891C29.0999 22.1388 29.4127 21.3984 28.451 19.4416C27.9373 18.4214 27.1944 17.5381 26.2823 16.863C25.3702 16.1878 24.3145 15.7398 23.2003 15.5549C22.0861 15.3701 20.9447 15.4537 19.8682 15.799C18.7917 16.1443 17.8103 16.7416 17.0033 17.5427C15.9246 18.6996 15.2348 20.1736 15.0331 21.753C14.8313 23.3324 15.1279 24.9362 15.8803 26.334C16.5739 27.5522 17.5942 28.5454 18.8225 29.1983C20.319 29.8886 21.9667 30.1726 23.604 30.0224C23.4278 31.0269 22.9637 31.9564 22.2696 32.6947C21.5756 33.433 20.6823 33.9473 19.7017 34.1731L17.9247 34.5142C17.5615 34.6217 17.7178 34.5468 17.5026 34.7106C17.2403 36.4257 17.2239 38.17 17.4539 39.8899C18.9148 40.0109 20.3848 39.8316 21.7757 39.3626C23.1667 38.8935 24.4501 38.1445 25.5491 37.1603C28.108 34.7804 28.1972 34.1423 29.3085 30.0155C31.5765 29.9268 43.0577 30.326 44.0665 29.8176C44.2027 29.589 44.1321 29.8177 44.2347 29.3809L44.2868 28.127C44.265 26.0235 44.5305 16.2788 44.1186 15.8113C42.4031 15.4237 40.6254 15.416 38.9068 15.789C38.4444 17.6076 38.9959 22.1509 38.7538 24.413L29.3572 24.3891H29.337Z" fill="#545456"/>
<path fill-rule="evenodd" clip-rule="evenodd" d="M71.1334 16.2273C70.3297 15.9424 66.3636 15.7003 65.987 16.5499C65.847 18.3947 65.8217 20.2465 65.9112 22.0945C65.9112 26.4243 66.1701 28.9184 63.6196 31.3324C61.7551 33.0913 57.0628 33.709 54.7528 31.887C51.8795 29.618 54.2819 23.8686 54.1709 22.3912C53.0462 21.8501 51.8531 21.47 50.6253 21.2619C48.9071 20.7159 48.6699 21.2703 48.0815 22.7153C45.7681 28.3963 46.8139 38.8918 57.7455 38.8577C67.142 38.8287 71.0878 34.7633 71.5149 25.0219C71.5905 23.2886 71.7082 17.3141 71.1315 16.2273H71.1334Z" fill="#545456"/>
<path fill-rule="evenodd" clip-rule="evenodd" d="M0.123566 34.5843C0.021297 35.593 -0.00230088 36.6085 0.0529662 37.621C0.0529662 38.6208 -0.253057 39.7979 0.606066 39.9753C2.241 39.9729 3.85826 39.6321 5.35898 38.9738C7.95701 37.7686 10.0119 35.614 11.1139 32.9397C12.2135 30.2749 11.8285 24.9659 11.8285 21.7296C11.8285 14.8799 13.0676 15.4719 7.60853 15.5794C6.79312 15.5965 6.96629 15.4991 6.55102 15.9205C5.97771 16.7121 6.33414 26.4824 6.34086 28.3112C6.35935 34.2448 2.04354 34.0112 0.12018 34.5878L0.123566 34.5843Z" fill="#545456"/>
<path fill-rule="evenodd" clip-rule="evenodd" d="M37.2559 37.5918C37.4644 38.2986 37.9136 38.9072 38.5233 39.3091C39.133 39.7109 39.8636 39.88 40.5848 39.786C41.2355 39.5416 41.8103 39.1255 42.2498 38.5806C42.6893 38.0357 42.9775 37.3815 43.0848 36.6859C43.1857 34.8093 40.1392 31.2575 37.2004 35.5703C36.5834 34.806 36.7313 34.6115 35.8554 34.0519C35.386 33.7616 34.8468 33.6082 34.2971 33.6085C33.7473 33.6089 33.2083 33.7629 32.7392 34.0538C32.2702 34.3446 31.8892 34.7612 31.6381 35.2575C31.387 35.7537 31.2755 36.3107 31.316 36.8671C31.4841 38.7147 33.8228 41.0604 35.9681 39.1104L36.9852 37.9312C37.0633 37.8048 37.1584 37.69 37.2677 37.5901L37.2559 37.5918Z" fill="#545456"/>
<path fill-rule="evenodd" clip-rule="evenodd" d="M40.0754 42.9165C41.2052 39.2042 35.0165 37.5631 34.2314 41.7224C34.1385 42.1177 34.125 42.5282 34.1917 42.929C34.2585 43.3298 34.4042 43.7124 34.62 44.0548C34.8358 44.3972 35.1173 44.6924 35.4479 44.922C35.7784 45.1516 36.1511 45.3111 36.5438 45.3914C36.9365 45.4716 37.341 45.4708 37.7333 45.3889C38.1257 45.307 38.4977 45.1459 38.8273 44.9149C39.1569 44.6839 39.4373 44.3877 39.6517 44.0444C39.8662 43.7011 40.0103 43.3175 40.0754 42.9165Z" fill="#545456"/>
<path fill-rule="evenodd" clip-rule="evenodd" d="M58.4971 13.4775C54.0737 15.0999 57.1217 20.6427 60.1547 19.4144C60.7445 19.0597 61.2678 18.6017 61.6999 18.0616C61.9638 17.716 62.1444 17.3127 62.2276 16.8839C62.3108 16.455 62.294 16.0124 62.1789 15.5912C61.9574 14.8216 61.4488 14.1699 60.7612 13.7749C60.0736 13.3798 59.2614 13.2743 58.4971 13.4775Z" fill="#545456"/>
<path fill-rule="evenodd" clip-rule="evenodd" d="M7.85913 8.39194C2.55139 10.2106 7.65229 17.7408 11.0131 12.9281C11.2585 12.5913 11.4265 12.2033 11.5051 11.7921C11.5836 11.3809 11.5707 10.9572 11.4671 10.5517C11.245 9.7964 10.7497 9.15399 10.0807 8.75347C9.41159 8.35295 8.6181 8.22391 7.85913 8.39194Z" fill="#545456"/>
<defs>
<linearGradient id="paint0_linear_1_227" x1="150.37" y1="35.7942" x2="181.486" y2="35.7942" gradientUnits="userSpaceOnUse">
<stop stop-color="#DB114B"/>
<stop offset="1" stop-color="#820026"/>
</linearGradient>
<linearGradient id="paint1_linear_1_227" x1="142.509" y1="15.9866" x2="181.641" y2="15.9866" gradientUnits="userSpaceOnUse">
<stop stop-color="#7D0022"/>
<stop offset="1" stop-color="#E41450"/>
</linearGradient>
</defs>
</svg>
